<?xml version="1.0" encoding="UTF-8" standalone="no"?>
<!DOCTYPE svg PUBLIC "-//W3C//DTD SVG 1.1//EN"
 "http://www.w3.org/Graphics/SVG/1.1/DTD/svg11.dtd">
<!-- Generated by graphviz version 2.43.0 (0)
 -->
<!-- Title: G Pages: 1 -->
<svg width="290pt" height="50pt"
 viewBox="0.00 0.00 290.00 50.18" xmlns="http://www.w3.org/2000/svg" xmlns:xlink="http://www.w3.org/1999/xlink">
<g id="graph0" class="graph" transform="scale(1 1) rotate(0) translate(4 46.18)">
<title>G</title>
<polygon fill="white" stroke="transparent" points="-4,4 -4,-46.18 286,-46.18 286,4 -4,4"/>
<!-- Frontend -->
<g id="node1" class="node">
<title>Frontend</title>
<path fill="none" stroke="black" d="M78,-42.18C78,-42.18 12,-42.18 12,-42.18 6,-42.18 0,-36.18 0,-30.18 0,-30.18 0,-16.18 0,-16.18 0,-10.18 6,-4.18 12,-4.18 12,-4.18 78,-4.18 78,-4.18 84,-4.18 90,-10.18 90,-16.18 90,-16.18 90,-30.18 90,-30.18 90,-36.18 84,-42.18 78,-42.18"/>
<text text-anchor="middle" x="45" y="-26.98" font-family="Helvetica,sans-Serif" font-size="14.00">Frontend</text>
<text text-anchor="middle" x="45" y="-11.98" font-family="Helvetica,sans-Serif" font-size="14.00">(GrapesJS)</text>
</g>
<!-- Backend -->
<g id="node2" class="node">
<title>Backend</title>
<path fill="none" stroke="black" d="M270,-42.18C270,-42.18 217,-42.18 217,-42.18 211,-42.18 205,-36.18 205,-30.18 205,-30.18 205,-16.18 205,-16.18 205,-10.18 211,-4.18 217,-4.18 217,-4.18 270,-4.18 270,-4.18 276,-4.18 282,-10.18 282,-16.18 282,-16.18 282,-30.18 282,-30.18 282,-36.18 276,-42.18 270,-42.18"/>
<text text-anchor="middle" x="243.5" y="-26.98" font-family="Helvetica,sans-Serif" font-size="14.00">Backend</text>
<text text-anchor="middle" x="243.5" y="-11.98" font-family="Helvetica,sans-Serif" font-size="14.00">(FastAPI)</text>
</g>
<!-- Frontend&#45;&gt;Backend -->
<g id="edge1" class="edge">
<title>Frontend&#45;&gt;Backend</title>
<path fill="none" stroke="black" d="M90.1,-23.18C121.11,-23.18 162.58,-23.18 194.43,-23.18"/>
<polygon fill="black" stroke="black" points="194.83,-26.68 204.83,-23.18 194.83,-19.68 194.83,-26.68"/>
<text text-anchor="middle" x="147.5" y="-26.98" font-family="Times,serif" font-size="14.00">REST API</text>
</g>
<!-- Backend&#45;&gt;Frontend -->
<g id="edge2" class="edge">
<title>Backend&#45;&gt;Frontend</title>
<path fill="none" stroke="black" d="M195.01,-5.8C192.32,-5.17 189.64,-4.62 187,-4.18 152.37,1.58 142.72,1.02 108,-4.18 102.21,-5.05 96.21,-6.35 90.34,-7.87"/>
<polygon fill="black" stroke="black" points="194.15,-9.2 204.71,-8.41 195.96,-2.43 194.15,-9.2"/>
<text text-anchor="middle" x="147.5" y="-7.98" font-family="Times,serif" font-size="14.00">HTML/CSS</text>
</g>
</g>
</svg>
